<mxfile host="app.diagrams.net" agent="Mozilla/5.0 (Windows NT 10.0; Win64; x64) AppleWebKit/537.36 (KHTML, like Gecko) Chrome/132.0.0.0 Safari/537.36" version="26.0.6">
  <diagram name="Pagina-1" id="OU2r5AgIUYYen79N6NXl">
    <mxGraphModel dx="988" dy="526" grid="0" gridSize="10" guides="1" tooltips="1" connect="1" arrows="1" fold="1" page="1" pageScale="1" pageWidth="827" pageHeight="1169" math="0" shadow="0">
      <root>
        <mxCell id="0" />
        <mxCell id="1" parent="0" />
        <mxCell id="mFL2dBSPdCOrPab_xv07-1" value="Crime" style="rounded=0;whiteSpace=wrap;html=1;" parent="1" vertex="1">
          <mxGeometry x="83" y="80" width="120" height="60" as="geometry" />
        </mxCell>
        <mxCell id="mFL2dBSPdCOrPab_xv07-3" value="Target Victim" style="rounded=0;whiteSpace=wrap;html=1;" parent="1" vertex="1">
          <mxGeometry x="83" y="295" width="120" height="60" as="geometry" />
        </mxCell>
        <mxCell id="mFL2dBSPdCOrPab_xv07-4" value="Location" style="rounded=0;whiteSpace=wrap;html=1;" parent="1" vertex="1">
          <mxGeometry x="439" y="80" width="120" height="60" as="geometry" />
        </mxCell>
        <mxCell id="mFL2dBSPdCOrPab_xv07-5" value="" style="ellipse;whiteSpace=wrap;html=1;aspect=fixed;fillStyle=solid;fillColor=#1A1A1A;" parent="1" vertex="1">
          <mxGeometry x="84.5" y="44" width="10" height="10" as="geometry" />
        </mxCell>
        <mxCell id="mFL2dBSPdCOrPab_xv07-6" value="ID" style="text;html=1;align=center;verticalAlign=middle;whiteSpace=wrap;rounded=0;" parent="1" vertex="1">
          <mxGeometry x="69" y="23" width="41" height="21" as="geometry" />
        </mxCell>
        <mxCell id="mFL2dBSPdCOrPab_xv07-7" value="" style="ellipse;whiteSpace=wrap;html=1;aspect=fixed;" parent="1" vertex="1">
          <mxGeometry x="125.5" y="44" width="10" height="10" as="geometry" />
        </mxCell>
        <mxCell id="mFL2dBSPdCOrPab_xv07-8" value="DateTime" style="text;html=1;align=center;verticalAlign=middle;whiteSpace=wrap;rounded=0;" parent="1" vertex="1">
          <mxGeometry x="110" y="23" width="41" height="21" as="geometry" />
        </mxCell>
        <mxCell id="mFL2dBSPdCOrPab_xv07-9" value="" style="ellipse;whiteSpace=wrap;html=1;aspect=fixed;" parent="1" vertex="1">
          <mxGeometry x="186" y="44" width="10" height="10" as="geometry" />
        </mxCell>
        <mxCell id="mFL2dBSPdCOrPab_xv07-10" value="Type" style="text;html=1;align=center;verticalAlign=middle;whiteSpace=wrap;rounded=0;" parent="1" vertex="1">
          <mxGeometry x="170.5" y="23" width="41" height="21" as="geometry" />
        </mxCell>
        <mxCell id="mFL2dBSPdCOrPab_xv07-11" value="" style="ellipse;whiteSpace=wrap;html=1;aspect=fixed;" parent="1" vertex="1">
          <mxGeometry x="35.5" y="105" width="10" height="10" as="geometry" />
        </mxCell>
        <mxCell id="mFL2dBSPdCOrPab_xv07-12" value="SubType" style="text;html=1;align=center;verticalAlign=middle;whiteSpace=wrap;rounded=0;" parent="1" vertex="1">
          <mxGeometry x="20" y="84" width="41" height="21" as="geometry" />
        </mxCell>
        <mxCell id="mFL2dBSPdCOrPab_xv07-15" value="Weapon" style="rounded=0;whiteSpace=wrap;html=1;" parent="1" vertex="1">
          <mxGeometry x="439" y="295" width="120" height="60" as="geometry" />
        </mxCell>
        <mxCell id="mFL2dBSPdCOrPab_xv07-17" value="" style="endArrow=none;html=1;rounded=0;entryX=0.5;entryY=1;entryDx=0;entryDy=0;exitX=0.058;exitY=0;exitDx=0;exitDy=0;exitPerimeter=0;" parent="1" source="mFL2dBSPdCOrPab_xv07-1" target="mFL2dBSPdCOrPab_xv07-5" edge="1">
          <mxGeometry width="50" height="50" relative="1" as="geometry">
            <mxPoint x="84" y="110" as="sourcePoint" />
            <mxPoint x="134" y="60" as="targetPoint" />
          </mxGeometry>
        </mxCell>
        <mxCell id="mFL2dBSPdCOrPab_xv07-18" value="" style="endArrow=none;html=1;rounded=0;entryX=0.5;entryY=1;entryDx=0;entryDy=0;exitX=0.058;exitY=0;exitDx=0;exitDy=0;exitPerimeter=0;" parent="1" edge="1">
          <mxGeometry width="50" height="50" relative="1" as="geometry">
            <mxPoint x="130.32999999999998" y="80" as="sourcePoint" />
            <mxPoint x="130.32999999999998" y="54" as="targetPoint" />
          </mxGeometry>
        </mxCell>
        <mxCell id="mFL2dBSPdCOrPab_xv07-19" value="" style="endArrow=none;html=1;rounded=0;entryX=0.5;entryY=1;entryDx=0;entryDy=0;exitX=0.058;exitY=0;exitDx=0;exitDy=0;exitPerimeter=0;" parent="1" edge="1">
          <mxGeometry width="50" height="50" relative="1" as="geometry">
            <mxPoint x="190.82999999999998" y="80" as="sourcePoint" />
            <mxPoint x="190.82999999999998" y="54" as="targetPoint" />
          </mxGeometry>
        </mxCell>
        <mxCell id="mFL2dBSPdCOrPab_xv07-21" value="" style="endArrow=none;html=1;rounded=0;exitX=0;exitY=0.5;exitDx=0;exitDy=0;entryX=1;entryY=0.5;entryDx=0;entryDy=0;" parent="1" source="mFL2dBSPdCOrPab_xv07-1" target="mFL2dBSPdCOrPab_xv07-11" edge="1">
          <mxGeometry width="50" height="50" relative="1" as="geometry">
            <mxPoint x="-11" y="113" as="sourcePoint" />
            <mxPoint x="24" y="89" as="targetPoint" />
          </mxGeometry>
        </mxCell>
        <mxCell id="mFL2dBSPdCOrPab_xv07-26" value="" style="ellipse;whiteSpace=wrap;html=1;aspect=fixed;" parent="1" vertex="1">
          <mxGeometry x="524" y="259" width="10" height="10" as="geometry" />
        </mxCell>
        <mxCell id="mFL2dBSPdCOrPab_xv07-27" value="Type" style="text;html=1;align=center;verticalAlign=middle;whiteSpace=wrap;rounded=0;" parent="1" vertex="1">
          <mxGeometry x="508.5" y="238" width="41" height="21" as="geometry" />
        </mxCell>
        <mxCell id="mFL2dBSPdCOrPab_xv07-28" value="" style="endArrow=none;html=1;rounded=0;entryX=0.5;entryY=1;entryDx=0;entryDy=0;exitX=0.058;exitY=0;exitDx=0;exitDy=0;exitPerimeter=0;" parent="1" edge="1">
          <mxGeometry width="50" height="50" relative="1" as="geometry">
            <mxPoint x="528.8299999999999" y="295" as="sourcePoint" />
            <mxPoint x="528.8299999999999" y="269" as="targetPoint" />
          </mxGeometry>
        </mxCell>
        <mxCell id="mFL2dBSPdCOrPab_xv07-29" value="" style="ellipse;whiteSpace=wrap;html=1;aspect=fixed;fillStyle=solid;fillColor=none;" parent="1" vertex="1">
          <mxGeometry x="459.5" y="44" width="10" height="10" as="geometry" />
        </mxCell>
        <mxCell id="mFL2dBSPdCOrPab_xv07-30" value="DistrictName" style="text;html=1;align=center;verticalAlign=middle;whiteSpace=wrap;rounded=0;" parent="1" vertex="1">
          <mxGeometry x="444" y="23" width="41" height="21" as="geometry" />
        </mxCell>
        <mxCell id="mFL2dBSPdCOrPab_xv07-31" value="" style="endArrow=none;html=1;rounded=0;entryX=0.5;entryY=1;entryDx=0;entryDy=0;exitX=0.058;exitY=0;exitDx=0;exitDy=0;exitPerimeter=0;" parent="1" edge="1">
          <mxGeometry width="50" height="50" relative="1" as="geometry">
            <mxPoint x="464.33" y="80" as="sourcePoint" />
            <mxPoint x="464.33" y="54" as="targetPoint" />
          </mxGeometry>
        </mxCell>
        <mxCell id="mFL2dBSPdCOrPab_xv07-38" value="" style="ellipse;whiteSpace=wrap;html=1;aspect=fixed;fillStyle=solid;fillColor=#1A1A1A;" parent="1" vertex="1">
          <mxGeometry x="459.5" y="259" width="10" height="10" as="geometry" />
        </mxCell>
        <mxCell id="mFL2dBSPdCOrPab_xv07-39" value="Name" style="text;html=1;align=center;verticalAlign=middle;whiteSpace=wrap;rounded=0;" parent="1" vertex="1">
          <mxGeometry x="444" y="238" width="41" height="21" as="geometry" />
        </mxCell>
        <mxCell id="mFL2dBSPdCOrPab_xv07-40" value="" style="endArrow=none;html=1;rounded=0;entryX=0.5;entryY=1;entryDx=0;entryDy=0;exitX=0.058;exitY=0;exitDx=0;exitDy=0;exitPerimeter=0;" parent="1" edge="1">
          <mxGeometry width="50" height="50" relative="1" as="geometry">
            <mxPoint x="464.33" y="295" as="sourcePoint" />
            <mxPoint x="464.33" y="269" as="targetPoint" />
          </mxGeometry>
        </mxCell>
        <mxCell id="mFL2dBSPdCOrPab_xv07-41" value="" style="ellipse;whiteSpace=wrap;html=1;aspect=fixed;fillStyle=solid;fillColor=#1A1A1A;" parent="1" vertex="1">
          <mxGeometry x="109" y="371" width="10" height="10" as="geometry" />
        </mxCell>
        <mxCell id="mFL2dBSPdCOrPab_xv07-42" value="ID" style="text;html=1;align=center;verticalAlign=middle;whiteSpace=wrap;rounded=0;" parent="1" vertex="1">
          <mxGeometry x="93.5" y="381" width="41" height="21" as="geometry" />
        </mxCell>
        <mxCell id="mFL2dBSPdCOrPab_xv07-43" value="" style="ellipse;whiteSpace=wrap;html=1;aspect=fixed;" parent="1" vertex="1">
          <mxGeometry x="138" y="371" width="10" height="10" as="geometry" />
        </mxCell>
        <mxCell id="mFL2dBSPdCOrPab_xv07-44" value="Age" style="text;html=1;align=center;verticalAlign=middle;whiteSpace=wrap;rounded=0;" parent="1" vertex="1">
          <mxGeometry x="126.5" y="381" width="41" height="21" as="geometry" />
        </mxCell>
        <mxCell id="mFL2dBSPdCOrPab_xv07-45" value="" style="ellipse;whiteSpace=wrap;html=1;aspect=fixed;" parent="1" vertex="1">
          <mxGeometry x="167.5" y="371" width="10" height="10" as="geometry" />
        </mxCell>
        <mxCell id="mFL2dBSPdCOrPab_xv07-46" value="Ethnicity" style="text;html=1;align=center;verticalAlign=middle;whiteSpace=wrap;rounded=0;" parent="1" vertex="1">
          <mxGeometry x="7" y="314.5" width="41" height="21" as="geometry" />
        </mxCell>
        <mxCell id="mFL2dBSPdCOrPab_xv07-48" value="" style="endArrow=none;html=1;rounded=0;entryX=0.5;entryY=1;entryDx=0;entryDy=0;exitX=0.5;exitY=0;exitDx=0;exitDy=0;" parent="1" source="mFL2dBSPdCOrPab_xv07-43" target="mFL2dBSPdCOrPab_xv07-3" edge="1">
          <mxGeometry width="50" height="50" relative="1" as="geometry">
            <mxPoint x="300.83" y="438" as="sourcePoint" />
            <mxPoint x="300.83" y="412" as="targetPoint" />
          </mxGeometry>
        </mxCell>
        <mxCell id="mFL2dBSPdCOrPab_xv07-52" value="" style="ellipse;whiteSpace=wrap;html=1;aspect=fixed;" parent="1" vertex="1">
          <mxGeometry x="54.5" y="320" width="10" height="10" as="geometry" />
        </mxCell>
        <mxCell id="mFL2dBSPdCOrPab_xv07-53" value="Gender" style="text;html=1;align=center;verticalAlign=middle;whiteSpace=wrap;rounded=0;" parent="1" vertex="1">
          <mxGeometry x="167.5" y="383" width="41" height="21" as="geometry" />
        </mxCell>
        <mxCell id="mFL2dBSPdCOrPab_xv07-54" value="" style="endArrow=none;html=1;rounded=0;entryX=1;entryY=0.5;entryDx=0;entryDy=0;exitX=0;exitY=0.5;exitDx=0;exitDy=0;" parent="1" source="mFL2dBSPdCOrPab_xv07-3" target="mFL2dBSPdCOrPab_xv07-52" edge="1">
          <mxGeometry width="50" height="50" relative="1" as="geometry">
            <mxPoint x="383.83" y="438" as="sourcePoint" />
            <mxPoint x="383.83" y="412" as="targetPoint" />
          </mxGeometry>
        </mxCell>
        <mxCell id="mFL2dBSPdCOrPab_xv07-55" value="" style="ellipse;whiteSpace=wrap;html=1;aspect=fixed;fillStyle=solid;fillColor=none;" parent="1" vertex="1">
          <mxGeometry x="533.5" y="44" width="10" height="10" as="geometry" />
        </mxCell>
        <mxCell id="mFL2dBSPdCOrPab_xv07-56" value="StreetName" style="text;html=1;align=center;verticalAlign=middle;whiteSpace=wrap;rounded=0;" parent="1" vertex="1">
          <mxGeometry x="518" y="23" width="41" height="21" as="geometry" />
        </mxCell>
        <mxCell id="mFL2dBSPdCOrPab_xv07-57" value="" style="endArrow=none;html=1;rounded=0;entryX=0.5;entryY=1;entryDx=0;entryDy=0;exitX=0.058;exitY=0;exitDx=0;exitDy=0;exitPerimeter=0;" parent="1" edge="1">
          <mxGeometry width="50" height="50" relative="1" as="geometry">
            <mxPoint x="538.3299999999999" y="80" as="sourcePoint" />
            <mxPoint x="538.3299999999999" y="54" as="targetPoint" />
          </mxGeometry>
        </mxCell>
        <mxCell id="mFL2dBSPdCOrPab_xv07-59" style="edgeStyle=orthogonalEdgeStyle;rounded=0;orthogonalLoop=1;jettySize=auto;html=1;entryX=1;entryY=0.5;entryDx=0;entryDy=0;" parent="1" source="mFL2dBSPdCOrPab_xv07-58" target="mFL2dBSPdCOrPab_xv07-1" edge="1">
          <mxGeometry relative="1" as="geometry" />
        </mxCell>
        <mxCell id="mFL2dBSPdCOrPab_xv07-61" value="(1,1)" style="edgeLabel;html=1;align=center;verticalAlign=middle;resizable=0;points=[];" parent="mFL2dBSPdCOrPab_xv07-59" vertex="1" connectable="0">
          <mxGeometry x="-0.1526" y="-1" relative="1" as="geometry">
            <mxPoint as="offset" />
          </mxGeometry>
        </mxCell>
        <mxCell id="mFL2dBSPdCOrPab_xv07-60" style="edgeStyle=orthogonalEdgeStyle;rounded=0;orthogonalLoop=1;jettySize=auto;html=1;entryX=0;entryY=0.5;entryDx=0;entryDy=0;" parent="1" source="mFL2dBSPdCOrPab_xv07-58" target="mFL2dBSPdCOrPab_xv07-4" edge="1">
          <mxGeometry relative="1" as="geometry" />
        </mxCell>
        <mxCell id="mFL2dBSPdCOrPab_xv07-62" value="(0,n)" style="edgeLabel;html=1;align=center;verticalAlign=middle;resizable=0;points=[];" parent="mFL2dBSPdCOrPab_xv07-60" vertex="1" connectable="0">
          <mxGeometry x="-0.3211" y="-2" relative="1" as="geometry">
            <mxPoint as="offset" />
          </mxGeometry>
        </mxCell>
        <mxCell id="mFL2dBSPdCOrPab_xv07-58" value="occurred at" style="rhombus;whiteSpace=wrap;html=1;" parent="1" vertex="1">
          <mxGeometry x="281" y="70" width="80" height="80" as="geometry" />
        </mxCell>
        <mxCell id="mFL2dBSPdCOrPab_xv07-65" value="" style="endArrow=none;html=1;rounded=0;entryX=0.25;entryY=1;entryDx=0;entryDy=0;exitX=0.5;exitY=0;exitDx=0;exitDy=0;" parent="1" source="mFL2dBSPdCOrPab_xv07-41" target="mFL2dBSPdCOrPab_xv07-3" edge="1">
          <mxGeometry width="50" height="50" relative="1" as="geometry">
            <mxPoint x="123" y="418" as="sourcePoint" />
            <mxPoint x="173" y="368" as="targetPoint" />
          </mxGeometry>
        </mxCell>
        <mxCell id="mFL2dBSPdCOrPab_xv07-66" value="" style="endArrow=none;html=1;rounded=0;entryX=0.75;entryY=1;entryDx=0;entryDy=0;exitX=0.5;exitY=0;exitDx=0;exitDy=0;" parent="1" source="mFL2dBSPdCOrPab_xv07-45" target="mFL2dBSPdCOrPab_xv07-3" edge="1">
          <mxGeometry width="50" height="50" relative="1" as="geometry">
            <mxPoint x="203" y="414" as="sourcePoint" />
            <mxPoint x="253" y="364" as="targetPoint" />
          </mxGeometry>
        </mxCell>
        <mxCell id="mFL2dBSPdCOrPab_xv07-68" style="edgeStyle=orthogonalEdgeStyle;rounded=0;orthogonalLoop=1;jettySize=auto;html=1;entryX=0.5;entryY=1;entryDx=0;entryDy=0;" parent="1" source="mFL2dBSPdCOrPab_xv07-67" target="mFL2dBSPdCOrPab_xv07-1" edge="1">
          <mxGeometry relative="1" as="geometry" />
        </mxCell>
        <mxCell id="mFL2dBSPdCOrPab_xv07-70" value="(0,1)" style="edgeLabel;html=1;align=center;verticalAlign=middle;resizable=0;points=[];" parent="mFL2dBSPdCOrPab_xv07-68" vertex="1" connectable="0">
          <mxGeometry x="0.1733" y="1" relative="1" as="geometry">
            <mxPoint as="offset" />
          </mxGeometry>
        </mxCell>
        <mxCell id="mFL2dBSPdCOrPab_xv07-69" style="edgeStyle=orthogonalEdgeStyle;rounded=0;orthogonalLoop=1;jettySize=auto;html=1;" parent="1" source="mFL2dBSPdCOrPab_xv07-67" target="mFL2dBSPdCOrPab_xv07-3" edge="1">
          <mxGeometry relative="1" as="geometry" />
        </mxCell>
        <mxCell id="mFL2dBSPdCOrPab_xv07-71" value="(0,1)" style="edgeLabel;html=1;align=center;verticalAlign=middle;resizable=0;points=[];" parent="mFL2dBSPdCOrPab_xv07-69" vertex="1" connectable="0">
          <mxGeometry x="-0.46" y="1" relative="1" as="geometry">
            <mxPoint as="offset" />
          </mxGeometry>
        </mxCell>
        <mxCell id="mFL2dBSPdCOrPab_xv07-67" value="involves" style="rhombus;whiteSpace=wrap;html=1;" parent="1" vertex="1">
          <mxGeometry x="103" y="175" width="80" height="80" as="geometry" />
        </mxCell>
        <mxCell id="mFL2dBSPdCOrPab_xv07-73" style="edgeStyle=orthogonalEdgeStyle;rounded=0;orthogonalLoop=1;jettySize=auto;html=1;entryX=1;entryY=1;entryDx=0;entryDy=0;" parent="1" source="mFL2dBSPdCOrPab_xv07-72" target="mFL2dBSPdCOrPab_xv07-1" edge="1">
          <mxGeometry relative="1" as="geometry" />
        </mxCell>
        <mxCell id="mFL2dBSPdCOrPab_xv07-75" value="(0,n)" style="edgeLabel;html=1;align=center;verticalAlign=middle;resizable=0;points=[];" parent="mFL2dBSPdCOrPab_xv07-73" vertex="1" connectable="0">
          <mxGeometry x="-0.6066" relative="1" as="geometry">
            <mxPoint as="offset" />
          </mxGeometry>
        </mxCell>
        <mxCell id="mFL2dBSPdCOrPab_xv07-74" style="edgeStyle=orthogonalEdgeStyle;rounded=0;orthogonalLoop=1;jettySize=auto;html=1;entryX=0;entryY=0.5;entryDx=0;entryDy=0;" parent="1" source="mFL2dBSPdCOrPab_xv07-72" target="mFL2dBSPdCOrPab_xv07-15" edge="1">
          <mxGeometry relative="1" as="geometry" />
        </mxCell>
        <mxCell id="mFL2dBSPdCOrPab_xv07-76" value="(0,n)" style="edgeLabel;html=1;align=center;verticalAlign=middle;resizable=0;points=[];" parent="mFL2dBSPdCOrPab_xv07-74" vertex="1" connectable="0">
          <mxGeometry x="-0.0075" relative="1" as="geometry">
            <mxPoint as="offset" />
          </mxGeometry>
        </mxCell>
        <mxCell id="mFL2dBSPdCOrPab_xv07-72" value="used weapon" style="rhombus;whiteSpace=wrap;html=1;" parent="1" vertex="1">
          <mxGeometry x="281" y="203" width="80" height="80" as="geometry" />
        </mxCell>
        <mxCell id="mV8b3-VIyGHv63DyU5A9-4" value="" style="ellipse;whiteSpace=wrap;html=1;aspect=fixed;fillStyle=solid;fillColor=#1A1A1A;" parent="1" vertex="1">
          <mxGeometry x="559" y="60" width="10" height="10" as="geometry" />
        </mxCell>
        <mxCell id="mV8b3-VIyGHv63DyU5A9-5" value="" style="endArrow=none;html=1;rounded=0;entryX=0;entryY=0.5;entryDx=0;entryDy=0;" parent="1" target="mV8b3-VIyGHv63DyU5A9-4" edge="1">
          <mxGeometry width="50" height="50" relative="1" as="geometry">
            <mxPoint x="465" y="65" as="sourcePoint" />
            <mxPoint x="548.3299999999999" y="64" as="targetPoint" />
          </mxGeometry>
        </mxCell>
      </root>
    </mxGraphModel>
  </diagram>
</mxfile>
